<svg version="1.1" id="Layer_1" xmlns="http://www.w3.org/2000/svg" xmlns:xlink="http://www.w3.org/1999/xlink" x="0px" y="0px"
	 width="100%" viewBox="0 0 1080 1080" enable-background="new 0 0 1080 1080" xml:space="preserve">
<path fill="#E85879" opacity="1.000000" stroke="none" 
	d="
M61.959915,594.750549 
	C62.015331,579.970398 71.320480,568.112671 84.387955,562.889099 
	C101.518250,556.041382 119.311790,556.519714 137.053085,557.221191 
	C145.797211,557.567017 154.270218,560.406555 161.635437,565.904236 
	C169.322861,571.642334 172.918106,580.438477 171.194366,589.841064 
	C170.395645,594.197815 170.345947,598.698486 170.053253,603.140259 
	C168.935760,620.099243 168.120743,637.069031 172.026413,653.812256 
	C174.229584,663.257080 182.534073,671.890930 193.445297,671.987976 
	C201.469086,672.059387 209.506195,672.275024 217.515259,671.923157 
	C226.534348,671.526917 233.411118,663.561157 233.919998,652.639526 
	C234.582245,638.426697 233.415619,624.315674 231.266479,610.206299 
	C229.871994,601.051086 229.525650,591.841125 232.625687,582.502136 
	C237.786469,566.955078 251.212982,559.892334 265.206635,558.166992 
	C274.863647,556.976318 284.716156,556.970459 294.472992,557.093445 
	C306.273651,557.242065 317.483032,560.463989 327.654266,566.405273 
	C337.538055,572.178589 341.962646,581.556946 341.923676,592.717712 
	C341.733002,647.303528 341.064423,701.888977 341.152924,756.473633 
	C341.181366,774.025085 342.852814,791.584412 344.073975,809.119141 
	C344.711548,818.273865 346.517456,827.361877 346.895935,836.517212 
	C347.753204,857.253174 336.107513,868.110107 318.371307,872.732361 
	C299.549683,877.637329 280.321625,877.826965 261.220978,873.037842 
	C250.438339,870.334351 239.889862,859.724609 239.203812,848.558655 
	C238.574524,838.316040 239.762817,827.971375 239.919785,817.668213 
	C240.087280,806.673828 240.204987,795.669373 239.907532,784.681152 
	C239.757767,779.148315 239.049576,773.551819 237.862793,768.144653 
	C236.179291,760.474365 227.843307,753.417175 219.171158,753.198486 
	C211.199631,752.997437 202.893570,753.254639 195.261734,755.287659 
	C182.713074,758.630371 178.501022,764.752502 178.216248,776.249084 
	C177.910339,788.598328 179.480743,800.982544 179.825638,813.362793 
	C180.151093,825.046021 181.335922,836.954773 179.600494,848.378174 
	C177.733841,860.665344 167.544617,867.693298 156.585129,871.712891 
	C149.089630,874.462097 140.694824,875.455200 132.637878,875.821533 
	C119.179420,876.433533 105.437576,877.267151 92.604324,871.909241 
	C78.894218,866.185303 69.885994,854.902710 69.031494,839.182617 
	C68.596512,831.180420 68.243111,823.159180 68.279076,815.148438 
	C68.432777,780.911133 68.855080,746.674744 68.941330,712.437439 
	C68.972214,700.174377 68.573479,687.896973 67.933151,675.648987 
	C67.210419,661.824585 66.203377,648.006653 64.925957,634.222412 
	C63.943420,623.620300 62.244755,613.086121 61.111073,602.495300 
	C60.856800,600.119995 61.630348,597.634583 61.959915,594.750549 
z"/>
<path fill="#E85879" opacity="1.000000" stroke="none" 
	d="
M290.731445,476.617188 
	C286.011139,483.141541 282.218170,490.097534 276.793671,495.377319 
	C269.046234,502.918152 260.570160,509.933502 251.567032,515.910583 
	C236.766785,525.736389 219.972214,531.284790 202.814865,535.532654 
	C182.750916,540.500366 162.240524,541.014282 141.813385,539.752014 
	C125.723175,538.757751 109.732986,536.325623 94.521034,530.092285 
	C80.895714,524.509094 68.385292,517.250305 57.766418,507.125031 
	C47.055248,496.911713 40.323357,484.422791 41.121983,469.225922 
	C41.833778,455.681183 45.899914,443.381805 57.090073,434.294891 
	C67.095299,426.170166 81.267227,427.495758 91.150124,432.743256 
	C107.997719,441.688660 124.785553,450.721680 143.532928,455.177521 
	C152.545090,457.319550 161.164047,456.490601 168.716415,450.644196 
	C175.073395,445.723175 178.689484,432.605713 169.955368,423.380920 
	C163.166214,416.210266 154.247253,413.073883 145.256134,409.995087 
	C122.817780,402.311615 99.648491,396.440430 80.475578,381.195618 
	C60.939552,365.662048 46.929405,347.089996 42.876682,321.688263 
	C38.789886,296.072968 41.789085,271.603516 53.361992,248.491837 
	C59.660622,235.913162 68.977867,225.586411 79.852150,216.401596 
	C97.977364,201.092407 119.208931,193.038467 141.876663,188.255142 
	C151.143982,186.299576 160.752182,185.844238 170.234543,185.059692 
	C177.797119,184.433975 185.427048,183.796036 192.987183,184.113541 
	C222.180817,185.339600 250.022003,191.668808 274.103210,209.153595 
	C289.572693,220.385590 298.820557,235.463226 296.919678,255.407562 
	C295.348328,271.893951 288.816467,285.646881 273.101471,293.406738 
	C262.534302,298.624634 253.217255,294.399445 243.955292,289.445862 
	C231.311401,282.683563 218.963303,275.162933 205.772751,269.693207 
	C195.285919,265.344574 183.750107,264.497711 173.146469,270.997162 
	C157.649841,280.495728 157.593170,305.563019 175.559784,313.594696 
	C187.953522,319.135101 201.224411,322.763214 214.204681,326.930145 
	C233.767181,333.210083 252.487228,341.168701 268.545380,354.263397 
	C286.187866,368.650116 297.052002,386.957520 301.167572,409.628937 
	C304.523254,428.114349 301.769348,445.778107 296.722137,463.348145 
	C295.429291,467.848724 292.894379,471.992523 290.731445,476.617188 
z"/>
<path fill="#E85879" opacity="1.000000" stroke="none" 
	d="
M581.229004,274.652344 
	C588.120361,279.197205 589.491272,288.928070 583.907043,295.446503 
	C578.393616,301.882233 572.449951,307.963776 566.496033,314.004578 
	C555.906250,324.748932 544.993103,335.179932 534.580688,346.090881 
	C530.804810,350.047455 527.855713,354.865295 524.928345,359.539978 
	C521.702942,364.690674 521.956299,370.193237 524.865906,375.443420 
	C537.369446,398.005341 550.007996,420.492584 562.461487,443.082001 
	C568.460388,453.963440 574.087769,465.049072 580.015198,475.970734 
	C584.447815,484.138123 588.908020,492.300751 593.678406,500.272522 
	C604.222351,517.892578 592.966003,529.964294 577.163879,531.701965 
	C561.880005,533.382751 546.323242,533.025452 530.897034,532.808167 
	C521.099609,532.670227 510.931610,531.644653 503.173309,524.829041 
	C497.551270,519.890198 492.322601,514.138916 488.240814,507.886597 
	C479.493134,494.487457 471.525024,480.574615 463.383362,466.786102 
	C456.839783,455.704102 450.534851,444.481354 444.057190,433.360016 
	C443.185303,431.863068 441.922058,430.594055 440.467316,428.746063 
	C439.820923,430.583038 439.025543,431.753082 439.066132,432.893372 
	C439.578735,447.284729 440.395996,461.667175 440.755768,476.061401 
	C441.043030,487.554779 442.689880,499.314484 437.833038,510.283539 
	C432.626404,522.042542 421.946136,527.094299 410.421539,529.845459 
	C392.604858,534.098511 374.400543,534.486572 356.479126,530.786194 
	C339.890747,527.361145 327.606445,514.825256 325.358490,497.562592 
	C323.809845,485.669952 325.548340,473.338501 325.947662,461.207428 
	C326.148773,455.097565 326.733490,449.001007 326.977692,442.891724 
	C327.394287,432.467896 327.788940,422.041016 327.996246,411.611511 
	C328.402283,391.181305 329.024780,370.746033 328.887329,350.317413 
	C328.779510,334.285400 327.931885,318.243164 326.917236,302.236877 
	C325.939301,286.809143 324.373505,271.417389 322.974670,256.018127 
	C322.067871,246.035599 320.500885,236.086670 320.123810,226.088989 
	C319.638245,213.213287 326.227814,203.585526 336.121124,196.008087 
	C346.403076,188.132996 358.557770,186.460449 370.988953,184.811279 
	C386.088806,182.808090 400.674500,184.728043 414.363464,190.284744 
	C428.653168,196.085342 437.266083,204.513641 436.966095,221.748779 
	C436.726562,235.511810 436.221497,249.270340 435.999878,263.033539 
	C435.601288,287.787415 435.286621,312.542908 435.061737,337.298859 
	C435.038849,339.818634 435.867188,342.346191 436.423370,345.585663 
	C437.924164,344.719910 439.231720,344.335846 439.990753,343.470581 
	C447.700287,334.681885 455.064636,325.576660 463.024841,317.024719 
	C475.274261,303.864716 487.518707,290.649963 500.567688,278.306793 
	C506.544952,272.652802 515.133728,271.117767 523.467957,271.039612 
	C538.463074,270.898987 553.466858,270.758209 568.452759,271.155518 
	C572.640747,271.266571 576.778748,273.263153 581.229004,274.652344 
z"/>
<path fill="#E85879" opacity="1.000000" stroke="none" 
	d="
M1029.733154,521.771729 
	C1019.846375,528.529785 1009.012695,530.850891 997.634644,532.139648 
	C986.533264,533.397034 975.603882,533.340088 964.742004,530.959595 
	C952.606689,528.300049 943.279053,519.420227 943.131287,506.182159 
	C942.955383,490.421387 943.718567,474.650452 944.057983,458.883575 
	C944.383118,443.775604 945.554626,428.619507 944.729492,413.573669 
	C944.047668,401.140167 944.664917,388.480499 939.327759,376.363892 
	C933.027832,362.061798 921.876404,359.383484 909.270691,361.445435 
	C895.093079,363.764496 885.057190,376.748016 884.065308,389.748444 
	C883.035706,403.241699 882.352722,416.779358 882.104553,430.308350 
	C881.919373,440.397644 882.526794,450.511261 883.040894,460.600800 
	C883.526306,470.126984 884.549255,479.626892 884.983459,489.154388 
	C885.802124,507.120880 877.646667,522.133118 858.742615,528.079468 
	C837.477783,534.768311 815.962952,535.540955 794.749268,528.831848 
	C778.669556,523.746460 769.129333,510.285675 769.176270,493.430389 
	C769.267090,460.840790 770.896179,428.251831 770.776428,395.666687 
	C770.711304,377.924316 768.355408,360.191071 767.057922,342.451874 
	C766.805176,338.996735 766.550415,335.534729 766.501709,332.072998 
	C766.349365,321.251312 765.068054,310.253723 766.574707,299.658539 
	C767.880005,290.479309 774.975281,283.663147 783.581604,280.038147 
	C792.316772,276.358826 801.432556,273.200195 810.684143,271.243958 
	C818.975098,269.490845 827.684387,269.069336 836.196716,269.164642 
	C848.227112,269.299225 859.921448,271.681915 870.518188,277.920746 
	C879.347107,283.118774 882.518311,291.413605 882.949585,301.039429 
	C883.217834,307.026398 882.955322,313.035858 883.016235,319.034332 
	C883.031799,320.566437 883.371155,322.095306 883.561707,323.625641 
	C884.113159,323.940338 884.664612,324.255005 885.216064,324.569702 
	C886.711487,322.616089 888.194580,320.652924 889.704224,318.710388 
	C900.960205,304.226227 913.384705,290.836060 929.273254,281.423981 
	C946.415100,271.269501 964.945374,266.933807 985.060913,269.861511 
	C1009.310669,273.390961 1026.905151,286.024963 1036.324219,308.370819 
	C1040.552124,318.401093 1043.372925,329.745728 1043.674072,340.581726 
	C1044.816406,381.664001 1044.621460,422.782623 1045.033447,463.886597 
	C1045.131470,473.662445 1045.985596,483.437775 1045.879883,493.206726 
	C1045.748291,505.371643 1040.049927,514.748474 1029.733154,521.771729 
z"/>
<path fill="#E85879" opacity="1.000000" stroke="none" 
	d="
M635.039551,711.870605 
	C637.516479,725.440002 638.745789,738.530701 637.253906,751.994141 
	C635.679871,766.199158 633.210754,780.080627 628.175232,793.448853 
	C623.537537,805.760620 616.935791,816.913818 608.510254,827.072266 
	C599.726868,837.662231 590.135010,847.293884 578.597534,854.880188 
	C561.484558,866.132385 542.918945,873.712524 522.649902,876.947449 
	C503.104004,880.066895 483.807953,878.963379 464.535492,874.339783 
	C443.066132,869.189148 424.257507,859.474182 407.953613,844.551758 
	C395.854645,833.477905 384.861877,821.376892 378.168274,806.464783 
	C372.887390,794.700073 368.719086,782.118042 366.252563,769.470703 
	C360.148926,738.174072 366.732697,708.341064 381.398804,680.627747 
	C392.555450,659.546021 409.068634,642.874146 429.817719,630.576416 
	C444.149384,622.082275 459.511078,616.200378 475.753937,613.339233 
	C491.531250,610.560120 507.527985,610.330627 523.648743,611.786743 
	C540.901245,613.345154 556.944580,618.245422 572.100159,626.128723 
	C592.471802,636.725159 609.423218,651.461365 620.628052,671.657349 
	C627.478149,684.004272 633.159058,697.114685 635.039551,711.870605 
M528.000000,712.545166 
	C526.741150,703.312927 524.869019,694.455017 519.028687,686.634155 
	C509.176819,673.441345 487.063538,674.362793 478.253937,687.049011 
	C472.571930,695.231384 470.380737,704.288696 470.135498,713.735962 
	C469.668610,731.721191 469.946350,749.727356 470.021210,767.724426 
	C470.062927,777.752319 471.279938,787.651062 475.089935,797.002075 
	C479.028717,806.669006 486.725342,815.083557 504.047852,814.071655 
	C512.971741,813.550293 521.893127,806.983154 524.619202,796.466736 
	C526.856201,787.837280 528.134766,778.863342 528.854126,769.962524 
	C529.630493,760.354675 529.493225,750.650391 529.328857,740.995422 
	C529.172424,731.808594 528.466736,722.631042 528.000000,712.545166 
z"/>
<path fill="#E85879" opacity="1.000000" stroke="none" 
	d="
M977.474121,795.376465 
	C983.865723,794.447815 989.869507,793.218384 995.894897,793.101074 
	C1010.181763,792.822876 1023.408508,806.824036 1024.147339,821.072205 
	C1024.964600,836.835083 1017.138245,847.316650 1005.330383,855.912903 
	C988.335571,868.285278 968.886353,874.504456 948.460938,877.856689 
	C929.179260,881.021118 909.918030,879.677307 890.836792,875.885986 
	C871.916870,872.126709 854.370911,864.787781 838.600159,853.740601 
	C824.299622,843.723145 812.579407,831.144653 803.936768,815.787537 
	C794.307312,798.677063 789.547729,780.298706 787.909485,760.810059 
	C785.542358,732.649536 791.678467,706.344910 805.187805,681.926819 
	C817.120728,660.358276 834.240906,643.315979 855.775146,631.169495 
	C869.420959,623.472534 883.784668,617.377014 899.463684,614.776367 
	C914.340637,612.308838 929.128967,611.533752 944.255005,612.762817 
	C959.590454,614.008972 973.881836,618.211426 987.203369,625.211609 
	C1009.490601,636.922974 1025.150269,654.891052 1034.021362,678.616333 
	C1039.148315,692.328003 1042.355713,706.328369 1043.191895,721.064026 
	C1043.960083,734.600830 1041.224854,746.194336 1030.420044,755.057617 
	C1024.177490,760.178467 1016.618042,761.863098 1008.915222,761.908508 
	C973.585449,762.116577 938.253784,761.975830 902.922913,762.036987 
	C899.305359,762.043274 894.281433,760.623962 893.169556,765.404358 
	C892.294922,769.164795 892.660034,774.056030 894.416260,777.435974 
	C901.013367,790.132690 912.713562,795.985229 926.152710,799.005676 
	C942.110291,802.592102 957.722656,800.306030 973.253296,796.374512 
	C974.520020,796.053833 975.814575,795.843018 977.474121,795.376465 
M889.520630,712.044678 
	C892.064331,713.029724 894.610046,714.864014 897.151306,714.857971 
	C910.725586,714.825439 924.298706,714.330627 937.872437,714.003967 
	C939.202576,713.971924 940.742065,714.430054 941.824341,713.910645 
	C944.642090,712.558289 948.629272,711.416748 949.705322,709.070190 
	C953.224426,701.395325 953.637512,693.111145 948.984863,685.646423 
	C943.647217,677.082703 934.615173,674.564819 925.392456,674.148926 
	C910.483276,673.476501 896.966248,683.565674 891.623779,696.064880 
	C889.615967,700.762329 886.850403,705.764343 889.520630,712.044678 
z"/>
<path fill="#E85879" opacity="1.000000" stroke="none" 
	d="
M655.585205,826.991638 
	C655.887756,823.967773 655.991943,821.298889 655.992737,818.629944 
	C656.003540,782.809082 656.084351,746.987915 655.953979,711.167542 
	C655.908569,698.696106 655.667236,686.206421 654.915771,673.761230 
	C653.914246,657.174316 652.271973,640.627014 651.012573,624.054504 
	C650.237671,613.858215 649.688049,603.645081 648.993835,593.442444 
	C648.111633,580.476868 655.568542,571.917725 665.090271,565.250793 
	C674.067505,558.965149 684.689209,556.492798 695.679260,555.991028 
	C701.951843,555.704590 708.234436,554.891174 714.488159,555.088440 
	C729.265808,555.554688 743.473877,558.794006 755.242798,568.163574 
	C761.497803,573.143250 764.885498,580.586853 764.941467,588.814758 
	C765.105713,612.971680 764.970093,637.130615 765.008484,661.288635 
	C765.046753,685.396423 765.086121,709.504517 765.260376,733.611511 
	C765.340210,744.656433 765.240234,755.738831 766.110168,766.733948 
	C767.716492,787.035217 770.081116,807.275208 771.917358,827.559998 
	C772.693176,836.130310 772.759827,844.701233 769.050842,852.846436 
	C763.717651,864.558655 753.388062,869.922241 741.954163,872.769287 
	C733.288696,874.927063 724.107300,875.025208 715.151306,876.000977 
	C704.316650,877.181396 693.534485,876.353943 683.269958,872.948975 
	C668.201355,867.950439 657.309937,858.726013 656.003845,841.539673 
	C655.645081,836.819031 655.553162,832.078125 655.585205,826.991638 
z"/>
<path fill="#E85879" opacity="1.000000" stroke="none" 
	d="
M623.422180,341.591370 
	C622.152893,333.732544 620.813965,326.304840 620.122253,318.817413 
	C618.821289,304.734528 623.682373,293.148682 634.685913,284.027557 
	C644.545105,275.854950 656.418884,273.187622 668.481995,271.083710 
	C682.819336,268.583221 697.246704,267.408722 711.406799,272.064392 
	C725.522827,276.705597 737.635132,283.755829 740.449341,300.070587 
	C741.367859,305.395721 741.787109,310.876129 741.760254,316.282196 
	C741.681213,332.203583 741.257996,348.123169 740.981079,364.043671 
	C740.647888,383.195587 740.089050,402.347473 740.072327,421.499786 
	C740.057983,437.995697 740.612427,454.493500 741.026550,470.987701 
	C741.209106,478.256805 741.701843,485.517578 741.993286,492.784576 
	C742.735718,511.300018 731.812134,522.359680 716.227051,528.002014 
	C700.881958,533.557434 685.107849,533.865967 669.037231,532.140259 
	C660.759949,531.251404 652.931702,529.562012 645.769714,525.324768 
	C632.136414,517.259033 626.074341,504.291046 625.234497,489.395355 
	C624.239868,471.755066 624.883606,454.014099 625.050781,436.318970 
	C625.213867,419.058441 626.076355,401.795929 625.873718,384.543213 
	C625.707031,370.353882 624.429810,356.177582 623.422180,341.591370 
z"/>
<path fill="#E85879" opacity="1.000000" stroke="none" 
	d="
M733.262573,238.239487 
	C725.850403,246.261566 716.253357,249.074341 706.436523,250.884644 
	C690.125183,253.892609 673.687134,254.163574 657.548950,249.871536 
	C644.331909,246.356400 633.277710,239.500214 628.972717,225.572540 
	C625.874451,215.549103 628.529968,206.309662 634.612793,197.802567 
	C642.172302,187.230255 653.531006,183.667557 665.216675,181.176743 
	C682.160339,177.565201 699.044800,178.476273 715.571594,184.011368 
	C724.860840,187.122543 732.703125,192.174942 737.831238,200.785248 
	C743.312805,209.988937 742.126465,231.490677 733.262573,238.239487 
z"/>
<path fill="#E85879" opacity="1.000000" stroke="none" 
	d="
M653.007874,965.038025 
	C652.048279,980.983765 637.161865,995.848267 620.448303,999.976624 
	C606.404358,1003.445496 592.105774,1001.843506 577.922974,1001.799866 
	C573.026550,1001.784790 569.771179,999.417236 569.869934,992.943787 
	C570.208435,970.759827 570.135559,948.566162 569.914795,926.379272 
	C569.850769,919.946533 571.780396,915.431030 579.827881,915.196777 
	C592.214172,914.836182 604.796448,914.554443 617.005005,916.287048 
	C635.782166,918.951965 650.866821,933.243286 652.958252,952.521973 
	C653.390015,956.501587 653.016174,960.568665 653.007874,965.038025 
M615.426392,936.864624 
	C608.060364,935.993896 600.694336,935.123169 593.212280,934.238770 
	C593.212280,950.684692 593.212280,965.632263 593.212280,980.993286 
	C599.610657,980.993286 605.875671,981.591248 611.973938,980.838623 
	C619.230469,979.943054 628.219849,973.950684 630.144714,965.830933 
	C632.766235,954.772156 629.777527,943.107117 615.426392,936.864624 
z"/>
<path fill="#E75979" opacity="1.000000" stroke="none" 
	d="
M792.723816,925.228577 
	C807.919312,939.682434 810.611084,957.329590 804.206360,975.623962 
	C798.986816,990.532593 786.573181,999.528809 771.062378,1002.857849 
	C757.533203,1005.761597 744.726501,1002.943848 733.268677,994.983276 
	C711.188965,979.643005 709.574707,949.303406 725.117371,930.219543 
	C734.172852,919.101074 746.111084,914.212219 759.578125,913.242065 
	C771.893860,912.354797 783.089050,916.618225 792.723816,925.228577 
M758.832886,934.001465 
	C747.186035,936.223267 736.405212,944.797913 737.825806,960.734009 
	C738.663818,970.134033 743.108887,976.155334 750.939575,980.485535 
	C758.812805,984.839233 766.700562,983.683960 773.807983,979.446838 
	C782.442932,974.298950 786.315552,961.618408 783.451416,951.911499 
	C780.160950,940.759644 771.593201,932.854736 758.832886,934.001465 
z"/>
<path fill="#E85879" opacity="1.000000" stroke="none" 
	d="
M491.000122,941.000061 
	C491.335419,951.075867 491.037323,960.728882 492.191895,970.204956 
	C493.254303,978.924500 500.094940,983.599121 508.515564,982.997070 
	C516.304871,982.440125 522.631226,976.022339 522.941956,967.648499 
	C523.482544,953.080139 523.718872,938.499390 523.978577,923.922058 
	C524.115662,916.227234 527.423645,913.289978 535.073486,914.398438 
	C535.198425,914.416443 535.278259,914.727112 535.405579,914.749146 
	C546.999939,916.757874 547.000122,916.756836 547.000122,928.844055 
	C547.000122,941.169006 547.243408,953.500122 546.927307,965.816956 
	C546.646545,976.760193 543.374634,986.768066 535.042969,994.402954 
	C525.816650,1002.857605 514.410706,1005.113220 502.578979,1003.515686 
	C496.022522,1002.630432 489.319244,1000.152222 483.524078,996.894348 
	C473.011749,990.984680 468.548187,980.671753 468.139618,969.108704 
	C467.581146,953.305969 468.018585,937.468506 467.989685,921.646057 
	C467.981476,917.154968 470.094727,914.933228 474.614410,914.992737 
	C477.611847,915.032166 480.610321,914.986023 483.608154,915.003052 
	C488.908936,915.033142 490.920410,917.025391 490.983978,922.512573 
	C491.053406,928.507690 490.999969,934.504211 491.000122,941.000061 
z"/>
<path fill="#E75979" opacity="1.000000" stroke="none" 
	d="
M325.835938,1003.051392 
	C316.093231,1002.098206 307.575317,999.304993 300.425812,992.987305 
	C297.452942,990.360291 297.043091,987.286804 299.029785,984.196228 
	C300.963593,981.187805 303.064606,977.898926 305.936707,976.033203 
	C307.548920,974.985962 311.387421,975.805847 313.329712,977.112366 
	C319.750519,981.431458 326.276855,984.708679 334.310333,984.041626 
	C338.284515,983.711670 342.241547,983.059814 342.844208,978.494812 
	C343.404633,974.249695 340.225861,972.203735 336.448730,970.966919 
	C328.603149,968.397888 320.637512,966.080017 313.039001,962.899658 
	C302.551514,958.510132 297.209015,950.118225 298.133881,938.765503 
	C299.040833,927.632629 305.702209,920.104553 315.890778,916.144897 
	C330.868958,910.323730 345.089203,913.358521 358.430542,921.342224 
	C359.930878,922.240051 360.844666,925.224731 360.886169,927.264954 
	C361.081238,936.856628 353.302155,941.600159 344.809784,937.391174 
	C339.261353,934.641235 333.547424,931.742493 327.211548,934.117615 
	C324.861572,934.998596 322.080078,937.095276 321.407501,939.237793 
	C320.971313,940.627380 323.589142,944.141357 325.542542,944.906372 
	C332.616516,947.677063 340.096039,949.397400 347.224213,952.047546 
	C361.336121,957.294189 367.288147,966.375610 365.823761,979.068420 
	C364.239197,992.802185 356.445312,1000.103027 341.830383,1002.852539 
	C336.811127,1003.796753 331.475250,1003.058105 325.835938,1003.051392 
z"/>
<path fill="#E75979" opacity="1.000000" stroke="none" 
	d="
M570.364868,148.047913 
	C568.691345,153.655396 564.127747,155.913330 556.818298,154.988144 
	C551.268860,154.285706 548.160156,150.956314 548.064758,145.059891 
	C547.916504,135.897064 548.015137,126.730331 547.997498,117.565277 
	C547.979797,108.357056 544.599243,104.747345 536.255188,105.001579 
	C529.326965,105.212677 524.822388,110.772392 524.963989,118.345474 
	C525.147888,128.182968 524.975586,138.026703 525.011230,147.867569 
	C525.028503,152.638306 521.709167,153.788361 517.986694,154.521423 
	C509.755585,156.142365 502.570160,152.887985 502.801971,143.359146 
	C503.393494,119.043396 502.993561,94.703667 503.003387,70.373528 
	C503.005432,65.279991 504.941010,63.271366 510.064148,63.010857 
	C511.393890,62.943237 512.730164,62.983383 514.063049,63.001724 
	C522.242798,63.114273 525.928528,66.839043 525.988525,75.104218 
	C526.023682,79.956306 525.994995,84.808853 525.994995,89.354019 
	C530.666199,88.190758 535.065857,86.751038 539.580322,86.030029 
	C559.832703,82.795486 569.962952,95.430679 570.795654,110.251022 
	C571.494385,122.688431 570.723938,135.208405 570.364868,148.047913 
z"/>
<path fill="#E7597A" opacity="1.000000" stroke="none" 
	d="
M650.976318,104.278244 
	C651.670837,109.677063 652.757019,114.666290 652.867554,119.677063 
	C652.963623,124.028206 650.008789,126.654892 645.664001,126.940361 
	C637.953857,127.446968 630.226746,127.733055 622.502502,127.972595 
	C617.848328,128.116928 613.186035,127.999138 608.495117,127.999138 
	C609.580261,134.410461 615.419739,138.377228 622.578674,137.202942 
	C627.350952,136.420151 632.050232,135.063110 636.696777,133.676712 
	C642.136719,132.053558 644.773071,133.162918 647.150696,138.571762 
	C649.224548,143.289673 648.060486,147.797409 643.766846,149.972366 
	C629.315796,157.292709 614.597473,158.504715 600.345764,149.910721 
	C591.478943,144.563934 586.564575,135.800552 585.148254,125.710228 
	C583.739502,115.673080 585.984741,106.113708 592.162109,97.754875 
	C598.107971,89.709389 614.543579,83.201805 625.248657,85.470665 
	C636.689880,87.895538 645.532043,93.335861 650.976318,104.278244 
M614.236145,103.292488 
	C611.923035,106.136383 609.609863,108.980278 606.529053,112.767998 
	C615.908997,112.767998 623.336548,112.767998 630.761841,112.767998 
	C630.707458,104.811859 623.563965,100.514565 614.236145,103.292488 
z"/>
<path fill="#E75979" opacity="1.000000" stroke="none" 
	d="
M459.635193,153.977493 
	C455.803314,154.322906 452.300629,155.260178 448.995972,154.793900 
	C443.427490,154.008163 441.088196,150.218079 441.062927,143.149338 
	C441.002747,126.324829 441.039581,109.499977 441.037323,92.675270 
	C441.037048,90.689468 441.037262,88.703659 441.037262,86.000923 
	C435.892059,86.000923 430.970245,86.008530 426.048431,85.999130 
	C418.754425,85.985199 415.646057,83.298653 416.082794,76.396431 
	C416.629608,67.754166 419.641724,65.813080 425.868805,65.903206 
	C444.357849,66.170784 462.853241,65.993187 481.346130,66.002281 
	C487.768921,66.005440 489.706604,67.808220 489.991638,73.967209 
	C490.339020,81.473007 487.535278,85.656090 481.565033,85.912674 
	C475.934448,86.154663 470.285278,85.964607 464.000946,85.964607 
	C464.000946,88.039314 464.000946,89.802757 464.000946,91.566208 
	C464.000916,109.559303 463.962677,127.552544 464.033600,145.545364 
	C464.047516,149.076202 463.381683,152.087234 459.635193,153.977493 
z"/>
<path fill="#E85879" opacity="1.000000" stroke="none" 
	d="
M409.644226,1001.969299 
	C404.435699,1000.446533 402.803253,997.330505 402.888641,992.240234 
	C403.179291,974.915833 402.869324,957.581970 403.092133,940.255493 
	C403.147247,935.971375 401.714661,934.626892 397.618134,934.938354 
	C393.807739,935.228088 389.956329,935.070007 386.125916,934.982239 
	C381.121216,934.867676 378.172577,931.958679 378.033539,927.065613 
	C377.735870,916.592834 381.383423,914.717834 389.643890,914.894043 
	C406.299072,915.249390 422.967163,914.999756 439.629913,914.999817 
	C450.103607,914.999817 451.071747,915.993835 451.000549,926.671631 
	C450.997223,927.171509 451.007416,927.671570 450.997620,928.171265 
	C450.911072,932.590271 448.496399,934.823669 444.237823,934.964478 
	C439.743774,935.113037 435.229126,935.202087 430.745758,934.938416 
	C426.940033,934.714539 425.903534,936.232666 425.934204,939.872803 
	C426.081543,957.367493 426.001648,974.864014 425.999603,992.359924 
	C425.998657,1000.439087 424.482880,1001.988220 416.574951,1001.999084 
	C414.408813,1002.002014 412.242706,1001.990723 409.644226,1001.969299 
z"/>
<path fill="#E75979" opacity="1.000000" stroke="none" 
	d="
M696.973511,927.910889 
	C696.661987,933.299194 696.116089,938.263062 696.168579,943.220520 
	C696.273804,953.160522 696.921082,963.096863 696.934082,973.035217 
	C696.944153,980.758667 696.530823,988.500916 695.838318,996.192627 
	C695.688965,997.851929 693.648071,1000.552063 692.286743,1000.676697 
	C687.040405,1001.156860 681.655823,1001.206238 676.461121,1000.456787 
	C675.056763,1000.254150 673.190430,996.691956 673.148438,994.638794 
	C672.789429,977.084412 672.765747,959.522461 672.721497,941.962646 
	C672.705017,935.420898 672.813660,928.875793 673.025208,922.337402 
	C673.200378,916.926025 675.214050,915.105164 680.687683,915.001038 
	C681.519043,914.985229 682.350952,914.998840 683.182617,914.998657 
	C693.930115,914.996582 693.923889,914.997925 696.250244,925.670837 
	C696.387512,926.300354 696.751404,926.880432 696.973511,927.910889 
z"/>
</svg>